<svg width="150" height="150" viewBox="0 0 150 150" fill="none" xmlns="http://www.w3.org/2000/svg">
<g clip-path="url(#clip0)">
<path d="M149.96 108.602C148.055 95.8246 143.11 83.2622 131.439 79.2078C135.984 76.382 138.995 71.3448 138.995 65.6011C138.995 56.7552 131.838 49.5986 122.992 49.5986C114.146 49.5986 106.989 56.7552 106.989 65.6011C106.989 71.3448 110 76.382 114.545 79.2078C111.197 80.375 108.433 82.2179 106.099 84.5522C109.293 90.6338 111.535 98.1282 112.856 106.882C113.163 109.032 112.795 111.213 111.812 113.086H146.09C148.455 113.117 150.298 110.998 149.96 108.602ZM122.961 60.4102C120.074 60.4102 117.74 62.7446 117.74 65.6318C117.74 66.9525 116.665 68.0276 115.344 68.0276C114.023 68.0276 112.948 66.9525 112.948 65.6318C112.948 60.1338 117.433 55.6494 122.931 55.6494C124.251 55.6494 125.326 56.7244 125.326 58.0452C125.357 59.3352 124.282 60.4102 122.961 60.4102ZM85.1511 72.4198C90.5877 69.0411 94.2121 62.9903 94.2121 56.0794C94.2121 45.452 85.6119 36.8518 74.9845 36.8518C64.3571 36.8518 55.7569 45.452 55.7569 56.0794C55.7569 62.9596 59.3813 69.0104 64.8178 72.4198C50.7811 77.2728 44.8531 92.3845 42.5802 107.681C42.1502 110.537 44.3923 113.086 47.2796 113.086H102.659C105.546 113.086 107.788 110.537 107.358 107.681C105.116 92.3845 99.1572 77.2728 85.1511 72.4198ZM74.9845 49.8443C71.5444 49.8443 68.7186 52.6393 68.7186 56.1101C68.7186 57.7073 67.4286 58.9666 65.8621 58.9666C64.2649 58.9666 63.0056 57.6766 63.0056 56.1101C63.0056 49.5064 68.3808 44.1006 75.0152 44.1006C76.6124 44.1006 77.8717 45.3906 77.8717 46.9571C77.841 48.5542 76.5817 49.8443 74.9845 49.8443ZM149.96 108.602C148.055 95.8246 143.11 83.2622 131.439 79.2078C135.984 76.382 138.995 71.3448 138.995 65.6011C138.995 56.7552 131.838 49.5986 122.992 49.5986C114.146 49.5986 106.989 56.7552 106.989 65.6011C106.989 71.3448 110 76.382 114.545 79.2078C111.197 80.375 108.433 82.2179 106.099 84.5522C109.293 90.6338 111.535 98.1282 112.856 106.882C113.163 109.032 112.795 111.213 111.812 113.086H146.09C148.455 113.117 150.298 110.998 149.96 108.602ZM122.961 60.4102C120.074 60.4102 117.74 62.7446 117.74 65.6318C117.74 66.9525 116.665 68.0276 115.344 68.0276C114.023 68.0276 112.948 66.9525 112.948 65.6318C112.948 60.1338 117.433 55.6494 122.931 55.6494C124.251 55.6494 125.326 56.7244 125.326 58.0452C125.357 59.3352 124.282 60.4102 122.961 60.4102ZM37.1436 106.913C38.4336 98.159 40.7066 90.6645 43.9009 84.5829C41.5666 82.2486 38.8022 80.375 35.4543 79.2385C40.0001 76.4127 43.0102 71.3755 43.0102 65.6318C43.0102 56.7859 35.8536 49.6293 27.0077 49.6293C18.1618 49.6293 11.0052 56.7859 11.0052 65.6318C11.0052 71.3755 14.0152 76.4127 18.561 79.2385C6.88935 83.2622 1.91353 95.8553 0.0399128 108.633C-0.297952 110.998 1.54495 113.148 3.97143 113.148H38.2494C37.205 111.213 36.8365 109.063 37.1436 106.913ZM27.0077 60.4102C24.1205 60.4102 21.7861 62.7446 21.7861 65.6318C21.7861 66.9525 20.7111 68.0276 19.3904 68.0276C18.0696 68.0276 16.9946 66.9525 16.9946 65.6318C16.9946 60.1338 21.479 55.6494 26.977 55.6494C28.2977 55.6494 29.3727 56.7244 29.3727 58.0452C29.3727 59.3352 28.3284 60.4102 27.0077 60.4102Z" fill="#272C68"/>
</g>
<defs>
<clipPath id="clip0">
<rect width="150" height="150" fill="white"/>
</clipPath>
</defs>
</svg>
