<svg width="502" height="158" viewBox="0 0 502 158" fill="none" xmlns="http://www.w3.org/2000/svg">
<g filter="url(#filter0_d)">
<g clip-path="url(#clip0)">
<path d="M497.96 108.602C496.055 95.8246 491.11 83.2622 479.439 79.2078C483.984 76.382 486.995 71.3448 486.995 65.6011C486.995 56.7552 479.838 49.5986 470.992 49.5986C462.146 49.5986 454.989 56.7552 454.989 65.6011C454.989 71.3448 458 76.382 462.545 79.2078C459.197 80.375 456.433 82.2179 454.099 84.5522C457.293 90.6338 459.535 98.1282 460.856 106.882C461.163 109.032 460.795 111.213 459.812 113.086H494.09C496.455 113.117 498.298 110.998 497.96 108.602ZM470.961 60.4102C468.074 60.4102 465.74 62.7446 465.74 65.6318C465.74 66.9525 464.665 68.0276 463.344 68.0276C462.023 68.0276 460.948 66.9525 460.948 65.6318C460.948 60.1338 465.433 55.6494 470.931 55.6494C472.251 55.6494 473.326 56.7244 473.326 58.0452C473.357 59.3352 472.282 60.4102 470.961 60.4102ZM433.151 72.4198C438.588 69.0411 442.212 62.9903 442.212 56.0794C442.212 45.452 433.612 36.8518 422.984 36.8518C412.357 36.8518 403.757 45.452 403.757 56.0794C403.757 62.9596 407.381 69.0104 412.818 72.4198C398.781 77.2728 392.853 92.3845 390.58 107.681C390.15 110.537 392.392 113.086 395.28 113.086H450.659C453.546 113.086 455.788 110.537 455.358 107.681C453.116 92.3845 447.157 77.2728 433.151 72.4198ZM422.984 49.8443C419.544 49.8443 416.719 52.6393 416.719 56.1101C416.719 57.7073 415.429 58.9666 413.862 58.9666C412.265 58.9666 411.006 57.6766 411.006 56.1101C411.006 49.5064 416.381 44.1006 423.015 44.1006C424.612 44.1006 425.872 45.3906 425.872 46.9571C425.841 48.5542 424.582 49.8443 422.984 49.8443ZM497.96 108.602C496.055 95.8246 491.11 83.2622 479.439 79.2078C483.984 76.382 486.995 71.3448 486.995 65.6011C486.995 56.7552 479.838 49.5986 470.992 49.5986C462.146 49.5986 454.989 56.7552 454.989 65.6011C454.989 71.3448 458 76.382 462.545 79.2078C459.197 80.375 456.433 82.2179 454.099 84.5522C457.293 90.6338 459.535 98.1282 460.856 106.882C461.163 109.032 460.795 111.213 459.812 113.086H494.09C496.455 113.117 498.298 110.998 497.96 108.602ZM470.961 60.4102C468.074 60.4102 465.74 62.7446 465.74 65.6318C465.74 66.9525 464.665 68.0276 463.344 68.0276C462.023 68.0276 460.948 66.9525 460.948 65.6318C460.948 60.1338 465.433 55.6494 470.931 55.6494C472.251 55.6494 473.326 56.7244 473.326 58.0452C473.357 59.3352 472.282 60.4102 470.961 60.4102ZM385.144 106.913C386.434 98.159 388.707 90.6645 391.901 84.5829C389.567 82.2486 386.802 80.375 383.454 79.2385C388 76.4127 391.01 71.3755 391.01 65.6318C391.01 56.7859 383.854 49.6293 375.008 49.6293C366.162 49.6293 359.005 56.7859 359.005 65.6318C359.005 71.3755 362.015 76.4127 366.561 79.2385C354.889 83.2622 349.914 95.8553 348.04 108.633C347.702 110.998 349.545 113.148 351.971 113.148H386.249C385.205 111.213 384.836 109.063 385.144 106.913ZM375.008 60.4102C372.12 60.4102 369.786 62.7446 369.786 65.6318C369.786 66.9525 368.711 68.0276 367.39 68.0276C366.07 68.0276 364.995 66.9525 364.995 65.6318C364.995 60.1338 369.479 55.6494 374.977 55.6494C376.298 55.6494 377.373 56.7244 377.373 58.0452C377.373 59.3352 376.328 60.4102 375.008 60.4102Z" fill="#272C68"/>
</g>
<path d="M32.3076 57.5469H43.7334V95.9375C43.7334 99.4668 42.9463 102.59 41.3721 105.307C39.8232 107.998 37.627 110.08 34.7832 111.553C31.9395 113.025 28.7275 113.762 25.1475 113.762C19.2822 113.762 14.7119 112.276 11.4365 109.306C8.16113 106.31 6.52344 102.082 6.52344 96.623H18.0254C18.0254 99.3398 18.5967 101.346 19.7393 102.641C20.8818 103.936 22.6846 104.583 25.1475 104.583C27.3311 104.583 29.0703 103.834 30.3652 102.336C31.6602 100.838 32.3076 98.7051 32.3076 95.9375V57.5469ZM83.9902 101.574H63.957L60.1484 113H47.999L68.6416 57.5469H79.2295L99.9863 113H87.8369L83.9902 101.574ZM67.042 92.3193H80.9053L73.9355 71.5625L67.042 92.3193ZM120.096 57.5469L134.34 97.7656L148.508 57.5469H163.514V113H152.05V97.8418L153.192 71.6768L138.225 113H130.379L115.449 71.7148L116.592 97.8418V113H105.166V57.5469H120.096ZM195.849 57.5469H207.274V95.9375C207.274 99.4668 206.487 102.59 204.913 105.307C203.364 107.998 201.168 110.08 198.324 111.553C195.48 113.025 192.269 113.762 188.688 113.762C182.823 113.762 178.253 112.276 174.978 109.306C171.702 106.31 170.064 102.082 170.064 96.623H181.566C181.566 99.3398 182.138 101.346 183.28 102.641C184.423 103.936 186.226 104.583 188.688 104.583C190.872 104.583 192.611 103.834 193.906 102.336C195.201 100.838 195.849 98.7051 195.849 95.9375V57.5469ZM214.625 92.0146C214.625 87.9268 215.412 84.2832 216.986 81.084C218.561 77.8848 220.82 75.4092 223.766 73.6572C226.736 71.9053 230.177 71.0293 234.087 71.0293C239.647 71.0293 244.18 72.7305 247.684 76.1328C251.213 79.5352 253.181 84.1562 253.587 89.9961L253.663 92.8145C253.663 99.1367 251.898 104.215 248.369 108.049C244.84 111.857 240.104 113.762 234.163 113.762C228.222 113.762 223.474 111.857 219.919 108.049C216.39 104.24 214.625 99.0605 214.625 92.5098V92.0146ZM225.632 92.8145C225.632 96.7246 226.368 99.7207 227.841 101.803C229.313 103.859 231.421 104.888 234.163 104.888C236.829 104.888 238.911 103.872 240.409 101.841C241.907 99.7842 242.656 96.5088 242.656 92.0146C242.656 88.1807 241.907 85.21 240.409 83.1025C238.911 80.9951 236.804 79.9414 234.087 79.9414C231.396 79.9414 229.313 80.9951 227.841 83.1025C226.368 85.1846 225.632 88.4219 225.632 92.8145ZM297.576 92.7764C297.576 99.3779 296.167 104.532 293.349 108.239C290.53 111.921 286.595 113.762 281.542 113.762C277.073 113.762 273.506 112.048 270.84 108.62L270.345 113H260.442V54.5H271.449V75.4854C273.988 72.5146 277.327 71.0293 281.466 71.0293C286.493 71.0293 290.429 72.8828 293.272 76.5898C296.142 80.2715 297.576 85.4639 297.576 92.167V92.7764ZM286.569 91.9766C286.569 87.8125 285.909 84.7783 284.589 82.874C283.269 80.9443 281.301 79.9795 278.686 79.9795C275.182 79.9795 272.77 81.4141 271.449 84.2832V100.546C272.795 103.44 275.232 104.888 278.762 104.888C282.316 104.888 284.652 103.136 285.77 99.6318C286.303 97.9561 286.569 95.4043 286.569 91.9766ZM326.712 101.612C326.712 100.267 326.039 99.2129 324.693 98.4512C323.373 97.6641 321.24 96.9658 318.295 96.3564C308.494 94.2998 303.594 90.1357 303.594 83.8643C303.594 80.208 305.104 77.1611 308.126 74.7236C311.173 72.2607 315.146 71.0293 320.047 71.0293C325.277 71.0293 329.454 72.2607 332.577 74.7236C335.726 77.1865 337.3 80.3857 337.3 84.3213H326.293C326.293 82.7471 325.785 81.4521 324.77 80.4365C323.754 79.3955 322.167 78.875 320.009 78.875C318.155 78.875 316.721 79.2939 315.705 80.1318C314.689 80.9697 314.182 82.0361 314.182 83.3311C314.182 84.5498 314.753 85.54 315.896 86.3018C317.063 87.0381 319.019 87.6855 321.761 88.2441C324.503 88.7773 326.813 89.3867 328.692 90.0723C334.507 92.2051 337.414 95.8994 337.414 101.155C337.414 104.913 335.802 107.96 332.577 110.296C329.353 112.606 325.188 113.762 320.085 113.762C316.632 113.762 313.56 113.152 310.868 111.934C308.202 110.689 306.107 109.001 304.584 106.868C303.061 104.71 302.299 102.387 302.299 99.8984H312.734C312.836 101.854 313.56 103.352 314.905 104.393C316.251 105.434 318.054 105.954 320.313 105.954C322.421 105.954 324.008 105.561 325.074 104.773C326.166 103.961 326.712 102.907 326.712 101.612Z" fill="white"/>
<path d="M32.3076 57.5469V55.5469H30.3076V57.5469H32.3076ZM43.7334 57.5469H45.7334V55.5469H43.7334V57.5469ZM41.3721 105.307L39.6416 104.304L39.6386 104.309L41.3721 105.307ZM11.4365 109.306L10.0866 110.781L10.0929 110.787L11.4365 109.306ZM6.52344 96.623V94.623H4.52344V96.623H6.52344ZM18.0254 96.623H20.0254V94.623H18.0254V96.623ZM32.3076 59.5469H43.7334V55.5469H32.3076V59.5469ZM41.7334 57.5469V95.9375H45.7334V57.5469H41.7334ZM41.7334 95.9375C41.7334 99.1593 41.0182 101.928 39.6416 104.304L43.1026 106.309C44.8744 103.251 45.7334 99.7743 45.7334 95.9375H41.7334ZM39.6386 104.309C38.2871 106.658 36.3783 108.474 33.8635 109.777L35.7029 113.329C38.8756 111.686 41.3594 109.338 43.1055 106.304L39.6386 104.309ZM33.8635 109.777C31.3361 111.086 28.4457 111.762 25.1475 111.762V115.762C29.0094 115.762 32.5428 114.965 35.7029 113.329L33.8635 109.777ZM25.1475 111.762C19.6136 111.762 15.5811 110.365 12.7802 107.824L10.0929 110.787C13.8427 114.188 18.9509 115.762 25.1475 115.762V111.762ZM12.7864 107.83C10.0177 105.297 8.52344 101.66 8.52344 96.623H4.52344C4.52344 102.504 6.30455 107.322 10.0866 110.781L12.7864 107.83ZM6.52344 98.623H18.0254V94.623H6.52344V98.623ZM16.0254 96.623C16.0254 99.5613 16.6339 102.144 18.2396 103.964L21.2389 101.317C20.5595 100.547 20.0254 99.1184 20.0254 96.623H16.0254ZM18.2396 103.964C19.9014 105.847 22.3622 106.583 25.1475 106.583V102.583C23.0069 102.583 21.8623 102.024 21.2389 101.317L18.2396 103.964ZM25.1475 106.583C27.8449 106.583 30.1617 105.63 31.8783 103.644L28.8522 101.028C27.979 102.038 26.8172 102.583 25.1475 102.583V106.583ZM31.8783 103.644C33.5925 101.661 34.3076 98.9955 34.3076 95.9375H30.3076C30.3076 98.4147 29.7278 100.015 28.8522 101.028L31.8783 103.644ZM34.3076 95.9375V57.5469H30.3076V95.9375H34.3076ZM83.9902 101.574L85.8857 100.936L85.4272 99.5742H83.9902V101.574ZM63.957 101.574V99.5742H62.5155L62.0597 100.942L63.957 101.574ZM60.1484 113V115H61.59L62.0458 113.632L60.1484 113ZM47.999 113L46.1247 112.302L45.1204 115H47.999V113ZM68.6416 57.5469V55.5469H67.252L66.7673 56.8491L68.6416 57.5469ZM79.2295 57.5469L81.1026 56.8458L80.6164 55.5469H79.2295V57.5469ZM99.9863 113V115H102.87L101.859 112.299L99.9863 113ZM87.8369 113L85.9415 113.638L86.3999 115H87.8369V113ZM67.042 92.3193L65.1439 91.689L64.2704 94.3193H67.042V92.3193ZM80.9053 92.3193V94.3193H83.6866L82.8012 91.6827L80.9053 92.3193ZM73.9355 71.5625L75.8315 70.9259L73.9251 65.2484L72.0375 70.9321L73.9355 71.5625ZM83.9902 99.5742H63.957V103.574H83.9902V99.5742ZM62.0597 100.942L58.2511 112.368L62.0458 113.632L65.8544 102.207L62.0597 100.942ZM60.1484 111H47.999V115H60.1484V111ZM49.8734 113.698L70.5159 58.2446L66.7673 56.8491L46.1247 112.302L49.8734 113.698ZM68.6416 59.5469H79.2295V55.5469H68.6416V59.5469ZM77.3564 58.248L98.1132 113.701L101.859 112.299L81.1026 56.8458L77.3564 58.248ZM99.9863 111H87.8369V115H99.9863V111ZM89.7324 112.362L85.8857 100.936L82.0948 102.212L85.9415 113.638L89.7324 112.362ZM67.042 94.3193H80.9053V90.3193H67.042V94.3193ZM82.8012 91.6827L75.8315 70.9259L72.0396 72.1991L79.0093 92.956L82.8012 91.6827ZM72.0375 70.9321L65.1439 91.689L68.9401 92.9497L75.8336 72.1929L72.0375 70.9321ZM120.096 57.5469L121.981 56.8792L121.509 55.5469H120.096V57.5469ZM134.34 97.7656L132.455 98.4333L134.345 103.771L136.226 98.4301L134.34 97.7656ZM148.508 57.5469V55.5469H147.092L146.621 56.8824L148.508 57.5469ZM163.514 57.5469H165.514V55.5469H163.514V57.5469ZM163.514 113V115H165.514V113H163.514ZM152.05 113H150.05V115H152.05V113ZM152.05 97.8418L150.052 97.7545L150.05 97.7981V97.8418H152.05ZM153.192 71.6768L155.19 71.764L151.312 70.9956L153.192 71.6768ZM138.225 113V115H139.627L140.105 113.681L138.225 113ZM130.379 113L128.498 113.68L128.975 115H130.379V113ZM115.449 71.7148L117.33 71.0347L113.451 71.8022L115.449 71.7148ZM116.592 97.8418H118.592V97.7981L118.59 97.7544L116.592 97.8418ZM116.592 113V115H118.592V113H116.592ZM105.166 113H103.166V115H105.166V113ZM105.166 57.5469V55.5469H103.166V57.5469H105.166ZM118.21 58.2146L132.455 98.4333L136.225 97.0979L121.981 56.8792L118.21 58.2146ZM136.226 98.4301L150.394 58.2114L146.621 56.8824L132.453 97.1011L136.226 98.4301ZM148.508 59.5469H163.514V55.5469H148.508V59.5469ZM161.514 57.5469V113H165.514V57.5469H161.514ZM163.514 111H152.05V115H163.514V111ZM154.05 113V97.8418H150.05V113H154.05ZM154.048 97.929L155.19 71.764L151.194 71.5895L150.052 97.7545L154.048 97.929ZM151.312 70.9956L136.344 112.319L140.105 113.681L155.073 72.3579L151.312 70.9956ZM138.225 111H130.379V115H138.225V111ZM132.26 112.32L117.33 71.0347L113.568 72.395L128.498 113.68L132.26 112.32ZM113.451 71.8022L114.594 97.9292L118.59 97.7544L117.447 71.6275L113.451 71.8022ZM114.592 97.8418V113H118.592V97.8418H114.592ZM116.592 111H105.166V115H116.592V111ZM107.166 113V57.5469H103.166V113H107.166ZM105.166 59.5469H120.096V55.5469H105.166V59.5469ZM195.849 57.5469V55.5469H193.849V57.5469H195.849ZM207.274 57.5469H209.274V55.5469H207.274V57.5469ZM204.913 105.307L203.183 104.304L203.18 104.309L204.913 105.307ZM174.978 109.306L173.628 110.781L173.634 110.787L174.978 109.306ZM170.064 96.623V94.623H168.064V96.623H170.064ZM181.566 96.623H183.566V94.623H181.566V96.623ZM195.849 59.5469H207.274V55.5469H195.849V59.5469ZM205.274 57.5469V95.9375H209.274V57.5469H205.274ZM205.274 95.9375C205.274 99.1593 204.559 101.928 203.183 104.304L206.644 106.309C208.415 103.251 209.274 99.7743 209.274 95.9375H205.274ZM203.18 104.309C201.828 106.658 199.919 108.474 197.405 109.777L199.244 113.329C202.417 111.686 204.9 109.338 206.647 106.304L203.18 104.309ZM197.405 109.777C194.877 111.086 191.987 111.762 188.688 111.762V115.762C192.55 115.762 196.084 114.965 199.244 113.329L197.405 109.777ZM188.688 111.762C183.155 111.762 179.122 110.365 176.321 107.824L173.634 110.787C177.384 114.188 182.492 115.762 188.688 115.762V111.762ZM176.327 107.83C173.559 105.297 172.064 101.66 172.064 96.623H168.064C168.064 102.504 169.846 107.322 173.628 110.781L176.327 107.83ZM170.064 98.623H181.566V94.623H170.064V98.623ZM179.566 96.623C179.566 99.5613 180.175 102.144 181.781 103.964L184.78 101.317C184.1 100.547 183.566 99.1184 183.566 96.623H179.566ZM181.781 103.964C183.442 105.847 185.903 106.583 188.688 106.583V102.583C186.548 102.583 185.403 102.024 184.78 101.317L181.781 103.964ZM188.688 106.583C191.386 106.583 193.703 105.63 195.419 103.644L192.393 101.028C191.52 102.038 190.358 102.583 188.688 102.583V106.583ZM195.419 103.644C197.134 101.661 197.849 98.9955 197.849 95.9375H193.849C193.849 98.4147 193.269 100.015 192.393 101.028L195.419 103.644ZM197.849 95.9375V57.5469H193.849V95.9375H197.849ZM223.766 73.6572L222.75 71.9345L222.743 71.9383L223.766 73.6572ZM247.684 76.1328L246.29 77.5677L246.296 77.5727L247.684 76.1328ZM253.587 89.9961L255.586 89.9421L255.585 89.8996L255.582 89.8573L253.587 89.9961ZM253.663 92.8145H255.663V92.7874L255.662 92.7604L253.663 92.8145ZM248.369 108.049L249.836 109.408L249.841 109.403L248.369 108.049ZM219.919 108.049L218.452 109.408L218.457 109.413L219.919 108.049ZM227.841 101.803L226.208 102.958L226.215 102.967L227.841 101.803ZM240.409 101.841L242.019 103.028L242.026 103.018L240.409 101.841ZM227.841 83.1025L229.474 84.2575L229.48 84.2481L227.841 83.1025ZM216.625 92.0146C216.625 88.188 217.36 84.8538 218.781 81.967L215.192 80.201C213.464 83.7126 212.625 87.6655 212.625 92.0146H216.625ZM218.781 81.967C220.191 79.1005 222.19 76.9218 224.788 75.3761L222.743 71.9383C219.451 73.8966 216.93 76.6691 215.192 80.201L218.781 81.967ZM224.782 75.38C227.405 73.8328 230.485 73.0293 234.087 73.0293V69.0293C229.868 69.0293 226.068 69.9777 222.75 71.9345L224.782 75.38ZM234.087 73.0293C239.205 73.0293 243.212 74.5787 246.29 77.5677L249.077 74.698C245.147 70.8822 240.09 69.0293 234.087 69.0293V73.0293ZM246.296 77.5727C249.402 80.567 251.213 84.6877 251.592 90.1349L255.582 89.8573C255.149 83.6248 253.024 78.5033 249.072 74.6929L246.296 77.5727ZM251.588 90.0501L251.664 92.8685L255.662 92.7604L255.586 89.9421L251.588 90.0501ZM251.663 92.8145C251.663 98.7476 250.018 103.305 246.898 106.694L249.841 109.403C253.779 105.125 255.663 99.5258 255.663 92.8145H251.663ZM246.902 106.689C243.807 110.029 239.636 111.762 234.163 111.762V115.762C240.573 115.762 245.872 113.686 249.836 109.408L246.902 106.689ZM234.163 111.762C228.69 111.762 224.503 110.029 221.381 106.684L218.457 109.413C222.444 113.686 227.753 115.762 234.163 115.762V111.762ZM221.386 106.689C218.282 103.34 216.625 98.6937 216.625 92.5098H212.625C212.625 99.4274 214.497 105.14 218.452 109.408L221.386 106.689ZM216.625 92.5098V92.0146H212.625V92.5098H216.625ZM223.632 92.8145C223.632 96.9318 224.4 100.401 226.208 102.958L229.474 100.648C228.336 99.04 227.632 96.5174 227.632 92.8145H223.632ZM226.215 102.967C228.098 105.598 230.839 106.888 234.163 106.888V102.888C232.003 102.888 230.529 102.121 229.467 100.638L226.215 102.967ZM234.163 106.888C237.422 106.888 240.12 105.603 242.019 103.028L238.8 100.654C237.703 102.141 236.236 102.888 234.163 102.888V106.888ZM242.026 103.018C243.901 100.444 244.656 96.6452 244.656 92.0146H240.656C240.656 96.3723 239.914 99.1242 238.793 100.663L242.026 103.018ZM244.656 92.0146C244.656 87.9556 243.869 84.5173 242.039 81.9438L238.779 84.2613C239.946 85.9026 240.656 88.4057 240.656 92.0146H244.656ZM242.039 81.9438C240.144 79.2778 237.412 77.9414 234.087 77.9414V81.9414C236.195 81.9414 237.678 82.7125 238.779 84.2613L242.039 81.9438ZM234.087 77.9414C230.779 77.9414 228.069 79.285 226.201 81.9569L229.48 84.2481C230.558 82.7052 232.012 81.9414 234.087 81.9414V77.9414ZM226.208 81.9476C224.379 84.534 223.632 88.2746 223.632 92.8145H227.632C227.632 88.5692 228.358 85.8352 229.474 84.2575L226.208 81.9476ZM293.349 108.239L294.937 109.455L294.941 109.45L293.349 108.239ZM270.84 108.62L272.419 107.392L269.404 103.516L268.853 108.395L270.84 108.62ZM270.345 113V115H272.131L272.332 113.225L270.345 113ZM260.442 113H258.442V115H260.442V113ZM260.442 54.5V52.5H258.442V54.5H260.442ZM271.449 54.5H273.449V52.5H271.449V54.5ZM271.449 75.4854H269.449V80.9036L272.97 76.7848L271.449 75.4854ZM293.272 76.5898L291.686 77.8072L291.69 77.8132L291.695 77.8192L293.272 76.5898ZM284.589 82.874L282.938 84.0034L282.945 84.0136L284.589 82.874ZM271.449 84.2832L269.632 83.4471L269.449 83.8451V84.2832H271.449ZM271.449 100.546H269.449V100.988L269.636 101.389L271.449 100.546ZM285.77 99.6318L287.675 100.239L287.675 100.238L285.77 99.6318ZM295.576 92.7764C295.576 99.1184 294.22 103.789 291.757 107.029L294.941 109.45C298.114 105.276 299.576 99.6375 299.576 92.7764H295.576ZM291.761 107.024C289.358 110.162 286.037 111.762 281.542 111.762V115.762C287.153 115.762 291.702 113.68 294.937 109.455L291.761 107.024ZM281.542 111.762C277.669 111.762 274.693 110.316 272.419 107.392L269.261 109.848C272.319 113.779 276.477 115.762 281.542 115.762V111.762ZM268.853 108.395L268.357 112.775L272.332 113.225L272.827 108.845L268.853 108.395ZM270.345 111H260.442V115H270.345V111ZM262.442 113V54.5H258.442V113H262.442ZM260.442 56.5H271.449V52.5H260.442V56.5ZM269.449 54.5V75.4854H273.449V54.5H269.449ZM272.97 76.7848C275.104 74.2877 277.873 73.0293 281.466 73.0293V69.0293C276.782 69.0293 272.873 70.7416 269.929 74.1859L272.97 76.7848ZM281.466 73.0293C285.926 73.0293 289.252 74.6354 291.686 77.8072L294.859 75.3725C291.605 71.1303 287.06 69.0293 281.466 69.0293V73.0293ZM291.695 77.8192C294.193 81.0252 295.576 85.7207 295.576 92.167H299.576C299.576 85.2071 298.09 79.5178 294.85 75.3605L291.695 77.8192ZM295.576 92.167V92.7764H299.576V92.167H295.576ZM288.569 91.9766C288.569 87.6885 287.906 84.1483 286.232 81.7345L282.945 84.0136C283.912 85.4083 284.569 87.9365 284.569 91.9766H288.569ZM286.239 81.7447C284.498 79.1988 281.87 77.9795 278.686 77.9795V81.9795C280.732 81.9795 282.04 82.6899 282.938 84.0034L286.239 81.7447ZM278.686 77.9795C276.662 77.9795 274.81 78.3947 273.226 79.3365C271.629 80.2862 270.44 81.6925 269.632 83.4471L273.266 85.1193C273.779 84.0048 274.456 83.2592 275.271 82.7744C276.099 82.2816 277.205 81.9795 278.686 81.9795V77.9795ZM269.449 84.2832V100.546H273.449V84.2832H269.449ZM269.636 101.389C270.456 103.154 271.658 104.567 273.266 105.522C274.861 106.469 276.725 106.888 278.762 106.888V102.888C277.269 102.888 276.15 102.583 275.308 102.083C274.478 101.59 273.788 100.832 273.263 99.7027L269.636 101.389ZM278.762 106.888C280.875 106.888 282.796 106.362 284.38 105.174C285.958 103.99 287.023 102.284 287.675 100.239L283.864 99.0243C283.399 100.484 282.738 101.405 281.98 101.974C281.228 102.538 280.203 102.888 278.762 102.888V106.888ZM287.675 100.238C288.305 98.2587 288.569 95.4537 288.569 91.9766H284.569C284.569 95.3549 284.3 97.6534 283.864 99.0254L287.675 100.238ZM324.693 98.4512L323.669 100.169L323.689 100.181L323.708 100.192L324.693 98.4512ZM318.295 96.3564L317.884 98.3138L317.89 98.315L318.295 96.3564ZM308.126 74.7236L309.382 76.2803L309.383 76.279L308.126 74.7236ZM332.577 74.7236L331.339 76.2941L331.345 76.2989L332.577 74.7236ZM337.3 84.3213V86.3213H339.3V84.3213H337.3ZM326.293 84.3213H324.293V86.3213H326.293V84.3213ZM324.77 80.4365L323.338 81.8332L323.347 81.842L323.355 81.8507L324.77 80.4365ZM315.896 86.3018L314.786 87.9659L314.807 87.98L314.829 87.9936L315.896 86.3018ZM321.761 88.2441L321.362 90.2039L321.37 90.2057L321.379 90.2074L321.761 88.2441ZM328.692 90.0723L329.381 88.1946L329.378 88.1934L328.692 90.0723ZM332.577 110.296L333.742 111.922L333.75 111.916L332.577 110.296ZM310.868 111.934L310.022 113.746L310.033 113.751L310.043 113.756L310.868 111.934ZM304.584 106.868L302.95 108.022L302.957 108.031L304.584 106.868ZM302.299 99.8984V97.8984H300.299V99.8984H302.299ZM312.734 99.8984L314.732 99.7947L314.633 97.8984H312.734V99.8984ZM325.074 104.773L326.262 106.383L326.268 106.378L325.074 104.773ZM328.712 101.612C328.712 99.4255 327.539 97.7638 325.679 96.7107L323.708 100.192C324.539 100.662 324.712 101.108 324.712 101.612H328.712ZM325.717 96.7333C324.1 95.7689 321.696 95.0178 318.7 94.3979L317.89 98.315C320.784 98.9138 322.646 99.5592 323.669 100.169L325.717 96.7333ZM318.706 94.3991C313.967 93.4046 310.657 91.9453 308.564 90.1668C306.548 88.4537 305.594 86.3962 305.594 83.8643H301.594C301.594 87.6038 303.09 90.7641 305.974 93.215C308.781 95.6006 312.823 97.2517 317.884 98.3138L318.706 94.3991ZM305.594 83.8643C305.594 80.8544 306.797 78.3651 309.382 76.2803L306.87 73.167C303.412 75.9572 301.594 79.5616 301.594 83.8643H305.594ZM309.383 76.279C311.992 74.1699 315.487 73.0293 320.047 73.0293V69.0293C314.806 69.0293 310.353 70.3516 306.869 73.1682L309.383 76.279ZM320.047 73.0293C324.97 73.0293 328.666 74.1862 331.339 76.2941L333.816 73.1532C330.242 70.3353 325.585 69.0293 320.047 69.0293V73.0293ZM331.345 76.2989C334.018 78.3897 335.3 81.0122 335.3 84.3213H339.3C339.3 79.7593 337.434 75.9833 333.809 73.1484L331.345 76.2989ZM337.3 82.3213H326.293V86.3213H337.3V82.3213ZM328.293 84.3213C328.293 82.2726 327.612 80.4508 326.184 79.0223L323.355 81.8507C323.958 82.4535 324.293 83.2215 324.293 84.3213H328.293ZM326.201 79.0399C324.66 77.46 322.446 76.875 320.009 76.875V80.875C321.888 80.875 322.848 81.331 323.338 81.8332L326.201 79.0399ZM320.009 76.875C317.877 76.875 315.928 77.3554 314.432 78.5891L316.978 81.6746C317.514 81.2325 318.433 80.875 320.009 80.875V76.875ZM314.432 78.5891C312.965 79.7995 312.182 81.4276 312.182 83.3311H316.182C316.182 82.6447 316.414 82.1399 316.978 81.6746L314.432 78.5891ZM312.182 83.3311C312.182 85.312 313.17 86.8883 314.786 87.9659L317.005 84.6377C316.336 84.1918 316.182 83.7876 316.182 83.3311H312.182ZM314.829 87.9936C316.319 88.9331 318.575 89.6362 321.362 90.2039L322.16 86.2844C319.462 85.7349 317.808 85.143 316.962 84.6099L314.829 87.9936ZM321.379 90.2074C324.055 90.7277 326.257 91.3126 328.007 91.9511L329.378 88.1934C327.37 87.4608 324.951 86.827 322.142 86.2809L321.379 90.2074ZM328.004 91.9499C330.671 92.9283 332.5 94.2023 333.662 95.6795C334.805 97.1325 335.414 98.92 335.414 101.155H339.414C339.414 98.1347 338.569 95.4471 336.805 93.2058C335.061 90.9886 332.528 89.3491 329.381 88.1946L328.004 91.9499ZM335.414 101.155C335.414 104.228 334.146 106.69 331.404 108.676L333.75 111.916C337.458 109.23 339.414 105.598 339.414 101.155H335.414ZM331.412 108.67C328.613 110.676 324.89 111.762 320.085 111.762V115.762C325.487 115.762 330.092 114.537 333.742 111.922L331.412 108.67ZM320.085 111.762C316.869 111.762 314.085 111.195 311.693 110.112L310.043 113.756C313.034 115.11 316.395 115.762 320.085 115.762V111.762ZM311.714 110.121C309.321 109.005 307.511 107.525 306.211 105.706L302.957 108.031C304.704 110.477 307.083 112.374 310.022 113.746L311.714 110.121ZM306.218 105.715C304.917 103.872 304.299 101.948 304.299 99.8984H300.299C300.299 102.826 301.204 105.548 302.95 108.022L306.218 105.715ZM302.299 101.898H312.734V97.8984H302.299V101.898ZM310.737 100.002C310.864 102.442 311.803 104.521 313.682 105.974L316.129 102.811C315.316 102.182 314.808 101.265 314.732 99.7947L310.737 100.002ZM313.682 105.974C315.477 107.364 317.756 107.954 320.313 107.954V103.954C318.352 103.954 317.025 103.504 316.129 102.811L313.682 105.974ZM320.313 107.954C322.615 107.954 324.702 107.534 326.262 106.383L323.887 103.164C323.314 103.587 322.227 103.954 320.313 103.954V107.954ZM326.268 106.378C327.837 105.211 328.712 103.576 328.712 101.612H324.712C324.712 102.238 324.495 102.711 323.88 103.169L326.268 106.378Z" fill="black"/>
</g>
<defs>
<filter id="filter0_d" x="0.523438" y="0" width="501.477" height="158" filterUnits="userSpaceOnUse" color-interpolation-filters="sRGB">
<feFlood flood-opacity="0" result="BackgroundImageFix"/>
<feColorMatrix in="SourceAlpha" type="matrix" values="0 0 0 0 0 0 0 0 0 0 0 0 0 0 0 0 0 0 127 0"/>
<feOffset dy="4"/>
<feGaussianBlur stdDeviation="2"/>
<feColorMatrix type="matrix" values="0 0 0 0 0 0 0 0 0 0 0 0 0 0 0 0 0 0 0.25 0"/>
<feBlend mode="normal" in2="BackgroundImageFix" result="effect1_dropShadow"/>
<feBlend mode="normal" in="SourceGraphic" in2="effect1_dropShadow" result="shape"/>
</filter>
<clipPath id="clip0">
<rect width="150" height="150" fill="white" transform="translate(348)"/>
</clipPath>
</defs>
</svg>
